<!DOCTYPE svg PUBLIC "-//W3C//DTD SVG 1.1//EN" "http://www.w3.org/Graphics/SVG/1.1/DTD/svg11.dtd">
<!-- Uploaded to: SVG Repo, www.svgrepo.com, Transformed by: SVG Repo Mixer Tools -->
<svg fill="#000000" height="64px" width="64px" version="1.1" id="Layer_1" xmlns="http://www.w3.org/2000/svg" xmlns:xlink="http://www.w3.org/1999/xlink" viewBox="0 0 512 512" xml:space="preserve">
<g id="SVGRepo_bgCarrier" stroke-width="0"/>
<g id="SVGRepo_tracerCarrier" stroke-linecap="round" stroke-linejoin="round"/>
<g id="SVGRepo_iconCarrier"> <g> <g> <path d="M23.795,51.362C10.607,51.362,0,62.259,0,75.447c0,13.188,10.728,23.917,23.917,23.917h72.088V51.53h0.001L23.795,51.362z M23.917,83.643c-4.519,0-8.195-3.677-8.195-8.195c0-4.521,3.677-8.196,8.195-8.196h56.366v16.391H23.917z"/> </g> </g> <g> <g> <polygon points="118.96,68.673 119.377,51.362 103.238,51.362 103.238,99.533 118.96,99.364 118.96,84.395 128.393,84.395 128.393,68.673 "/> </g> </g> <g> <g> <path d="M425.007,396.748v15.722c9.433,0,16.224,7.278,16.224,16.224c0,8.946-6.791,16.224-16.224,16.224v15.722 c17.818,0,31.945-14.331,31.945-31.945C456.952,411.078,442.825,396.748,425.007,396.748z"/> </g> </g> <g> <g> <path d="M393.22,396.748c-8.288,0-15.848,3.174-21.531,8.368H165.727c-5.663-5.194-13.228-8.368-21.612-8.368v15.722 c9.433,0,16.225,7.278,16.225,16.224c0,8.946-6.792,16.224-16.225,16.224v15.722c17.818,0,31.946-14.331,31.946-31.945 c0-2.709-0.338-5.341-0.967-7.856h187.16c-0.638,2.514-0.98,5.146-0.98,7.856c0,17.616,14.331,31.945,31.945,31.945 c17.614,0,31.945-14.331,31.945-31.945C425.164,411.078,410.836,396.748,393.22,396.748z M393.22,444.918 c-8.946,0-16.224-7.278-16.224-16.224c0-8.946,7.278-16.224,16.224-16.224c8.946,0,16.224,7.278,16.224,16.224 C409.444,437.639,402.166,444.918,393.22,444.918z"/> </g> </g> <g> <g> <path d="M512,317.074V100.116H168.26v-0.584c0-17.615-14.331-31.945-31.945-31.945v15.722c8.946,0,17.365,7.863,17.365,16.809 l-46.816,297.09c-15.069,2.559-26.58,15.7-26.58,31.486c0,17.615,14.331,31.945,31.945,31.945 c17.615,0,31.945-14.331,31.945-31.945c0-13.993-9.047-25.905-21.596-30.216l9.029-57.297h245.187v-15.722H134.085l1.322-8.385 H512z M216.434,301.353h-25.155v-24.106h25.155V301.353z M216.434,261.525h-25.155v-25.155h25.155V261.525z M216.434,220.649 h-25.155v-23.058h25.155V220.649z M216.434,181.869h-25.155v-25.155h25.155V181.869z M255.214,301.353h-23.058v-24.106h23.058 V301.353z M255.214,261.525h-23.058v-25.155h23.058V261.525z M255.214,220.649h-23.058v-23.058h23.058V220.649z M255.214,181.869 h-23.058v-25.155h23.058V181.869z M296.09,301.353h-25.155v-24.106h25.155V301.353z M296.09,261.525h-25.155v-25.155h25.155 V261.525z M296.09,220.649h-25.155v-23.058h25.155V220.649z M296.09,181.869h-25.155v-25.155h25.155V181.869z M336.966,301.353 h-25.155v-24.106h25.155V301.353z M336.966,261.525h-25.155v-25.155h25.155V261.525z M336.966,220.649h-25.155v-23.058h25.155 V220.649z M336.966,181.869h-25.155v-25.155h25.155V181.869z M375.746,301.353h-23.058v-24.106h23.058V301.353z M375.746,261.525 h-23.058v-25.155h23.058V261.525z M375.746,220.649h-23.058v-23.058h23.058V220.649z M375.746,181.869h-23.058v-25.155h23.058 V181.869z M416.622,301.353h-25.155v-24.106h25.155V301.353z M416.622,261.525h-25.155v-25.155h25.155V261.525z M416.622,220.649 h-25.155v-23.058h25.155V220.649z M416.622,181.869h-25.155v-25.155h25.155V181.869z M456.45,301.353h-24.106v-24.106h24.106 V301.353z M456.45,261.525h-24.106v-25.155h24.106V261.525z M456.45,220.649h-24.106v-23.058h24.106V220.649z M456.45,181.869 h-24.106v-25.155h24.106V181.869z M496.278,301.353h-24.106v-24.106h24.106V301.353z M496.278,261.525h-24.106v-25.155h24.106 V261.525z M496.278,220.649h-24.106v-23.058h24.106V220.649z M496.278,181.869h-24.106v-25.155h24.106V181.869z M167.118,115.838 h329.16v25.155H163.155L167.118,115.838z M160.678,156.714h14.88v25.155h-18.844L160.678,156.714z M154.236,197.591h21.322v23.058 h-24.955L154.236,197.591z M148.125,236.371h27.433v25.155h-31.397L148.125,236.371z M141.684,277.247h33.875v24.106h-0.001 h-37.673L141.684,277.247z M128.454,428.693c0,8.946-7.278,16.224-16.224,16.224c-8.946,0-16.224-7.278-16.224-16.224 c0-7.832,5.579-14.386,12.972-15.897l11.07,1.745l0.008-0.051C125.057,417.257,128.454,422.584,128.454,428.693z"/> </g> </g> </g>
</svg>